# AST/ASF file generated using VICON BodyLanguage
# -----------------------------------------------
:version 1.10
:name VICON
:units
  mass 1.0
  length 0.45
  angle deg
:documentation
   .ast/.asf automatically generated from VICON data using
   VICON BodyBuilder and BodyLanguage model FoxedUp or BRILLIANT.MOD
:root
   order TX TY TZ RX RY RZ
   axis XYZ
   position 0 0 0  
   orientation 0 0 0 
:bonedata
  begin
     id 1 
     name lhipjoint
     direction 0.610259 -0.730986 0.305356 
     length 2.50941 
     axis 0 0 0  XYZ
  end
  begin
     id 2 
     name lfemur
     direction 0.34202 -0.939693 0  
     length 7.48822  
     axis 0 0 20  XYZ
    dof rx ry rz
    limits (-160.0 20.0)
           (-70.0 70.0)
           (-60.0 70.0)
  end
  begin
     id 3 
     name ltibia
     direction 0.34202 -0.939693 0   
     length 7.60141   
     axis 0 0 20   XYZ
    dof rx
    limits (-10.0 170.0)
  end
  begin
     id 4 
     name lfoot
     direction 0.0673488 -0.185039 0.980421   
     length 2.04049   
     axis -90 7.62852e-016 20   XYZ
    dof rx rz
    limits (-45.0 90.0)
           (-70.0 20.0)
  end
  begin
     id 5 
     name ltoes
     direction 1.5356e-011 -4.21729e-011 1   
     length 1.02897   
     axis -90 7.62852e-016 20   XYZ
    dof rx
    limits (-90.0 20.0)
  end
  begin
     id 6 
     name rhipjoint
     direction -0.57612 -0.754205 0.315056   
     length 2.43216  
     axis 0 0 0  XYZ 
  end
  begin
     id 7 
     name rfemur
     direction -0.34202 -0.939693 0   
     length 7.42799   
     axis 0 0 -20   XYZ
    dof rx ry rz
    limits (-160.0 20.0)
           (-70.0 70.0)
           (-70.0 60.0)
  end
  begin
     id 8 
     name rtibia
     direction -0.34202 -0.939693 0   
     length 7.69484   
     axis 0 0 -20   XYZ
    dof rx
    limits (-10.0 170.0)
 end
 begin
     id 9 
     name rfoot
     direction -0.111837 -0.30727 0.945028   
     length 2.15769  
     axis -90 -7.62852e-016 -20   XYZ
    dof rx rz
    limits (-45.0 90.0)
           (-20.0 70.0)
  end
  begin
     id 10 
     name rtoes
     direction -1.53539e-011 -4.21878e-011 1   
     length 1.07391   
     axis -90 -7.62852e-016 -20   XYZ
    dof rx
    limits (-90.0 20.0)
  end
  begin
     id 11 
     name lowerback
     direction 0.00552624 0.990109 -0.140195   
     length 2.12403   
     axis 0 0 0   XYZ
    dof rx ry rz
    limits (-20.0 45.0)
           (-30.0 30.0)
           (-30.0 30.0)
  end
  begin
     id 12 
     name upperback
     direction 0.00361898 0.999976 -0.00584723   
     length 2.13232   
     axis 0 0 0   XYZ
    dof rx ry rz
    limits (-20.0 45.0)
           (-30.0 30.0)
           (-30.0 30.0)
  end
  begin
     id 13 
     name thorax
     direction -0.000331275 0.998253 0.0590847   
     length 2.17688   
     axis 0 0 0   XYZ
    dof rx ry rz
    limits (-20.0 45.0)
           (-30.0 30.0)
           (-30.0 30.0)
  end
  begin
     id 14 
     name lowerneck
     direction -0.0561561 0.979832 0.19177   
     length 1.64159   
     axis 0 0 0   XYZ
    dof rx ry rz
    limits (-20.0 45.0)
           (-30.0 30.0)
           (-30.0 30.0)
  end
  begin
     id 15 
     name upperneck
     direction 0.0827153 0.979385 -0.184293   
     length 1.68939   
     axis 0 0 0   XYZ
    dof rx ry rz
    limits (-20.0 45.0)
           (-30.0 30.0)
           (-30.0 30.0)
  end
  begin
     id 16
     name head
     direction 0.0278583 0.995936 -0.0856488  
     length 1.70207  
     axis 0 0 0   XYZ
    dof rx ry rz
    limits (-20.0 45.0)
           (-30.0 30.0)
           (-30.0 30.0)
  end
  begin
     id 17 
     name lclavicle
     direction 0.950993 0.301131 -0.0702275  
     length 3.41652  
     axis 0 0 0   XYZ
    dof ry rz
    limits (-20.0 10.0)
           (0.0 20.0)
  end
  begin
     id 18 
     name lhumerus
     direction 1 -4.48981e-011 -3.9662e-029   
     length 5.32955   
     axis 180 -30 -90   XYZ
    dof rx ry rz
    limits (-60.0 90.0)
           (-90.0 90.0)
           (-90.0 90.0)
  end
  begin
     id 19
     name lradius
     direction 1 -4.48925e-011 -9.0549e-027   
     length 3.69232   
     axis 180 -30 -90   XYZ
    dof rx
    limits (-10.0 170.0)
  end
  begin
     id 20
     name lwrist
     direction 1 -4.49007e-011 -1.49005e-026   
     length 1.84616   
     axis 9.0955e-015 90 90   XYZ
    dof ry
    limits (-180.0 0.0)
 end
  begin
     id 21 
     name lhand
     direction 1 -4.49016e-011 -2.98023e-026   
     length 0.536598   
     axis 1.90115e-014 90 90   XYZ
    dof rx rz
    limits (-90.0 90.0)
           (-45.0 45.0)
  end
  begin
     id 22 
     name lfingers
     direction 1 -4.48924e-011 -5.9578e-026   
     length 0.432619   
     axis 3.80223e-014 90 90   XYZ
    dof rx
    limits (0.0 90.0)
  end
  begin
     id 23
     name lthumb
     direction 0.707107 -6.34947e-011 0.707107   
     length 0.621157   
     axis -90 45 -3.84942e-014   XYZ
    dof rx rz
    limits (-45.0 45.0)
           (-45.0 45.0)
  end
  begin
     id 24 
     name rclavicle
     direction -0.955495 0.276497 -0.102848   
     length 3.36357  
     axis 0 0 0   XYZ 
    dof ry rz
    limits (-10.0 20.0)
           (-20.0 0.0)
  end
  begin
     id 25 
     name rhumerus
     direction -1 -4.48961e-011 3.30983e-027  
     length 5.23431   
     axis 180 30 90   XYZ
    dof rx ry rz
    limits (-90.0 60.0)
           (-90.0 90.0)
           (-90.0 90.0)
  end
  begin
     id 26 
     name rradius
     direction -1 -4.48965e-011 -6.63263e-027   
     length 3.55301   
     axis 180 30 90   XYZ
    dof rx
    limits (-10.0 170.0)
  end
  begin
     id 27 
     name rwrist
     direction -1 -4.48942e-011 -1.48958e-026   
     length 1.77651   
     axis 9.0955e-015 -90 -90   XYZ
    dof ry
    limits (-180.0 0.0)
  end
  begin
     id 28
     name rhand
     direction -1 -4.48977e-011 -2.97966e-026   
     length 0.772522   
     axis 1.90115e-014 -90 -90   XYZ
    dof rx rz
    limits (-90.0 90.0)
           (-45.0 45.0)
  end
  begin
     id 29
     name rfingers
     direction -1 -4.49135e-011 -5.96389e-026   
     length 0.622827   
     axis 3.80223e-014 -90 -90   XYZ
    dof rx
    limits (0.0 90.0)
  end
  begin
     id 30
     name rthumb
     direction -0.707107 -6.34969e-011 0.707107   
     length 0.894259   
     axis -90 -45 3.84942e-014   XYZ
    dof rx rz
    limits (-45.0 45.0)
           (-45.0 45.0)
  end
:hierarchy
  begin
    root lhipjoint rhipjoint lowerback
    lhipjoint lfemur
    lfemur ltibia
    ltibia lfoot
    lfoot ltoes
    rhipjoint rfemur
    rfemur rtibia
    rtibia rfoot
    rfoot rtoes
    lowerback upperback
    upperback thorax
    thorax lowerneck lclavicle rclavicle
    lowerneck upperneck
    upperneck head
    lclavicle lhumerus
    lhumerus lradius
    lradius lwrist
    lwrist lhand lthumb
    lhand lfingers
    rclavicle rhumerus
    rhumerus rradius
    rradius rwrist
    rwrist rhand rthumb
    rhand rfingers
  end

#!OML:ASF F:\VICON\USERDATA\INSTALL\rory3\rory3.ASF
:FULLY-SPECIFIED
:DEGREES
166
root 8.43371 17.767 1.85161 -4.80361 -41.0015 9.5302
lowerback 8.58025 -1.4049 -8.01172
upperback 1.14932 -2.65891 -0.658811
thorax -3.28311 -1.23641 4.106
lowerneck -18.7109 -4.96927 -10.5152
upperneck 25.7845 -5.71558 6.20819
head 12.0955 -2.86634 3.17819
rclavicle -1.19768e-014 -5.56597e-015
rhumerus -38.4681 -14.1081 -79.6493
rradius 30.6702
rwrist 5.83839
rhand -15.0044 8.79223
rfingers 7.12502
rthumb 11.1605 -20.891
lclavicle -1.19768e-014 -5.56597e-015
lhumerus -23.0279 -7.12147 88.1818
lradius 40.4924
lwrist -4.56492
lhand -18.9786 23.2024
lfingers 7.12502
lthumb 7.32585 53.0556
rfemur -28.6608 -5.10678 18.4994
rtibia 25.9459
rfoot -6.65047 -1.52995
rtoes -0.937197
lfemur 17.0233 2.91257 -30.9317
ltibia 2.54444e-014
lfoot -1.10666 -15.1193
ltoes 2.55436
167
root 8.31979 17.7846 1.94822 -4.90755 -40.7663 9.5249
lowerback 8.47186 -1.42091 -8.00646
upperback 1.17343 -2.66692 -0.63623
thorax -3.19535 -1.24466 4.12242
lowerneck -18.5937 -5.0572 -10.7187
upperneck 25.62 -5.82134 6.34858
head 12.031 -2.91519 3.24687
rclavicle -7.20594e-015 1.27222e-014
rhumerus -38.6619 -14.4265 -79.3816
rradius 30.5955
rwrist 5.51984
rhand -14.869 8.90959
rfingers 7.12502
rthumb 11.2911 -20.7665
lclavicle -7.20594e-015 1.27222e-014
lhumerus -23.2474 -7.23512 88.3613
lradius 40.4989
lwrist -4.32546
lhand -18.7936 23.6916
lfingers 7.12502
lthumb 7.50437 53.5385
rfemur -28.2291 -5.02702 18.6068
rtibia 26.2009
rfoot -5.55677 -0.330499
rtoes 3.58327
lfemur 17.606 2.5738 -30.8417
ltibia 1.59028e-014
lfoot -0.424947 -15.1562
ltoes 2.0186
168
root 8.2077 17.8133 2.04389 -4.78425 -40.4927 9.40058
lowerback 8.39111 -1.50035 -7.96391
upperback 1.05174 -2.76159 -0.536673
thorax -3.26254 -1.28474 4.21159
lowerneck -18.3423 -5.06133 -10.9155
upperneck 25.4676 -5.80384 6.40745
head 11.9291 -2.92214 3.30556
rclavicle 3.22031e-014 -2.78299e-015
rhumerus -38.8956 -14.5718 -79.0804
rradius 30.4459
rwrist 5.29795
rhand -14.7465 8.97226
rfingers 7.12502
rthumb 11.4092 -20.6973
lclavicle 3.22031e-014 -2.78299e-015
lhumerus -23.6386 -6.99705 88.5426
lradius 40.4096
lwrist -4.39354
lhand -18.5317 23.9512
lfingers 7.12502
lthumb 7.75714 53.7889
rfemur -27.9972 -4.52216 18.6295
rtibia 26.3302
rfoot -4.08467 -0.263591
rtoes 6.73691
lfemur 18.0041 2.15471 -30.641
ltibia -3.18055e-015
lfoot 0.53038 -15.2384
ltoes 2.17727
169
root 8.10177 17.85 2.12256 -4.24915 -39.9453 8.96613
lowerback 8.35561 -1.70959 -7.67103
upperback 0.865147 -3.01301 -0.45062
thorax -3.41584 -1.40025 4.16554
lowerneck -18.4356 -5.01525 -10.7566
upperneck 25.5739 -5.73529 6.24441
head 11.9708 -2.89644 3.22878
rclavicle -3.12589e-014 -1.11319e-014
rhumerus -39.0535 -14.9908 -78.9213
rradius 30.2411
rwrist 5.34603
rhand -14.9261 8.94904
rfingers 7.12502
rthumb 11.236 -20.7301
lclavicle -3.12589e-014 -1.11319e-014
lhumerus -23.9316 -6.552 88.4677
lradius 40.1869
lwrist -4.82375
lhand -18.1943 23.8513
lfingers 7.12502
lthumb 8.08283 53.6767
rfemur -27.9046 -4.00115 18.8286
rtibia 26.3226
rfoot -3.11105 -1.48326
rtoes 7.35843
lfemur 16.8152 1.41523 -30.1556
ltibia 2.59146
lfoot 0.623042 -15.4973
ltoes 3.67645
170
root 7.99386 17.8745 2.22249 -4.05388 -39.8889 8.50285
lowerback 8.34782 -1.76994 -7.16661
upperback 0.85008 -3.04432 -0.407756
thorax -3.44675 -1.42056 3.93148
lowerneck -18.6523 -4.99854 -10.6401
upperneck 25.7784 -5.69766 6.11913
head 12.082 -2.8832 3.16843
rclavicle -9.12919e-014 -2.38542e-015
rhumerus -39.1611 -15.2567 -78.8679
rradius 30.0701
rwrist 5.26298
rhand -15.1079 8.8175
rfingers 7.12502
rthumb 11.0606 -20.8711
lclavicle -9.12919e-014 -2.38542e-015
lhumerus -24.2013 -5.85657 88.3794
lradius 39.9504
lwrist -5.15605
lhand -18.2596 23.6515
lfingers 7.12502
lthumb 8.01975 53.4793
rfemur -27.3384 -3.654 19.2234
rtibia 26.2581
rfoot -2.72581 -3.12113
rtoes 5.16574
lfemur 15.7608 1.23802 -29.6581
ltibia 5.73108
lfoot 0.445055 -15.7775
ltoes 5.7067
